<svg width="12" height="12" viewBox="0 0 12 12" fill="none" xmlns="http://www.w3.org/2000/svg">
<path d="M8.57143 7.54286L12 10.9714L10.9714 12L7.54286 8.57143V8.02971L7.35771 7.83771C6.576 8.50972 5.56114 8.91429 4.45714 8.91429C3.27504 8.91429 2.14134 8.4447 1.30547 7.60882C0.46959 6.77294 0 5.63925 0 4.45714C0 3.27504 0.46959 2.14134 1.30547 1.30547C2.14134 0.46959 3.27504 0 4.45714 0C5.63925 0 6.77294 0.46959 7.60882 1.30547C8.4447 2.14134 8.91429 3.27504 8.91429 4.45714C8.91429 5.56114 8.50972 6.576 7.83771 7.35771L8.02971 7.54286H8.57143ZM4.45714 7.54286C6.17143 7.54286 7.54286 6.17143 7.54286 4.45714C7.54286 2.74286 6.17143 1.37143 4.45714 1.37143C2.74286 1.37143 1.37143 2.74286 1.37143 4.45714C1.37143 6.17143 2.74286 7.54286 4.45714 7.54286ZM6.17143 4.8H4.8V6.17143H4.11429V4.8H2.74286V4.11429H4.11429V2.74286H4.8V4.11429H6.17143V4.8Z" fill="#161616"/>
</svg>
