<svg width="12" height="14" viewBox="0 0 12 14" fill="none" xmlns="http://www.w3.org/2000/svg">
<path d="M10.0939 10.6373C10.3662 10.1974 10.5209 9.66822 10.5209 9.10716C10.5209 7.51324 9.28314 6.23811 7.73595 6.23811C6.18876 6.23811 4.95101 7.51324 4.95101 9.10716C4.95101 10.7011 6.18876 11.9762 7.73595 11.9762C8.27437 11.9762 8.78185 11.8168 9.20887 11.5427L11.1398 13.5L12 12.6138L10.0939 10.6373ZM7.73595 10.7011C6.8819 10.7011 6.18876 9.987 6.18876 9.10716C6.18876 8.22732 6.8819 7.51324 7.73595 7.51324C8.59 7.51324 9.28314 8.22732 9.28314 9.10716C9.28314 9.987 8.59 10.7011 7.73595 10.7011ZM11.1398 4.3254H9.90201V3.05027H11.1398V4.3254ZM11.1398 1.77513H9.90201V0.5H10.5209C10.8613 0.5 11.1398 0.786905 11.1398 1.13757V1.77513ZM9.90201 5.61967V5.60054H11.1398V6.87567H11.1212C10.8056 6.372 10.3909 5.94483 9.90201 5.61967ZM8.66426 1.77513H7.42651V0.5H8.66426V1.77513ZM6.18876 1.77513H4.95101V0.5H6.18876V1.77513ZM0 3.05027H1.23775V4.3254H0V3.05027ZM2.4755 10.7011H3.71325V11.9762H2.4755V10.7011ZM0 5.60054H1.23775V6.87567H0V5.60054ZM0.618876 0.5H1.23775V1.77513H0V1.13757C0 0.786905 0.278494 0.5 0.618876 0.5ZM3.71325 1.77513H2.4755V0.5H3.71325V1.77513ZM0 10.7011H1.23775V11.9762H0.618876C0.278494 11.9762 0 11.6893 0 11.3386V10.7011ZM0 8.15081H1.23775V9.42594H0V8.15081Z" fill="black"/>
</svg>
