<svg width="12" height="12" viewBox="0 0 12 12" fill="none" xmlns="http://www.w3.org/2000/svg">
<path d="M8.57143 7.54286H8.02971L7.83771 7.35771C8.50972 6.576 8.91429 5.56114 8.91429 4.45714C8.91429 3.27504 8.4447 2.14134 7.60882 1.30547C6.77294 0.46959 5.63925 0 4.45714 0C3.27504 0 2.14134 0.46959 1.30547 1.30547C0.46959 2.14134 0 3.27504 0 4.45714C0 5.63925 0.46959 6.77294 1.30547 7.60882C2.14134 8.4447 3.27504 8.91429 4.45714 8.91429C5.56114 8.91429 6.576 8.50972 7.35771 7.83771L7.54286 8.02971V8.57143L10.9714 12L12 10.9714L8.57143 7.54286ZM4.45714 7.54286C2.74286 7.54286 1.37143 6.17143 1.37143 4.45714C1.37143 2.74286 2.74286 1.37143 4.45714 1.37143C6.17143 1.37143 7.54286 2.74286 7.54286 4.45714C7.54286 6.17143 6.17143 7.54286 4.45714 7.54286ZM2.74286 4.11429H6.17143V4.8H2.74286V4.11429Z" fill="#161616"/>
</svg>
